CATALOG 0000000000000
FILE "Osborne Front End - Windows 3.11 - MS-DOS 6.2 (1993)(Osborne)[OEM] (Track 01 of 35).bin" BINARY
  TRACK 01 MODE1/2352
    INDEX 01 00:00:00
FILE "Osborne Front End - Windows 3.11 - MS-DOS 6.2 (1993)(Osborne)[OEM] (Track 02 of 35).bin" BINARY
  TRACK 02 MODE1/2352
    INDEX 00 00:00:00
    INDEX 01 00:02:00
FILE "Osborne Front End - Windows 3.11 - MS-DOS 6.2 (1993)(Osborne)[OEM] (Track 03 of 35).bin" BINARY
  TRACK 03 MODE1/2352
    INDEX 00 00:00:00
    INDEX 01 00:02:00
FILE "Osborne Front End - Windows 3.11 - MS-DOS 6.2 (1993)(Osborne)[OEM] (Track 04 of 35).bin" BINARY
  TRACK 04 MODE1/2352
    INDEX 00 00:00:00
    INDEX 01 00:02:00
FILE "Osborne Front End - Windows 3.11 - MS-DOS 6.2 (1993)(Osborne)[OEM] (Track 05 of 35).bin" BINARY
  TRACK 05 MODE1/2352
    INDEX 00 00:00:00
    INDEX 01 00:02:00
FILE "Osborne Front End - Windows 3.11 - MS-DOS 6.2 (1993)(Osborne)[OEM] (Track 06 of 35).bin" BINARY
  TRACK 06 MODE1/2352
    INDEX 00 00:00:00
    INDEX 01 00:02:00
FILE "Osborne Front End - Windows 3.11 - MS-DOS 6.2 (1993)(Osborne)[OEM] (Track 07 of 35).bin" BINARY
  TRACK 07 MODE1/2352
    INDEX 00 00:00:00
    INDEX 01 00:02:00
FILE "Osborne Front End - Windows 3.11 - MS-DOS 6.2 (1993)(Osborne)[OEM] (Track 08 of 35).bin" BINARY
  TRACK 08 MODE1/2352
    INDEX 00 00:00:00
    INDEX 01 00:02:00
FILE "Osborne Front End - Windows 3.11 - MS-DOS 6.2 (1993)(Osborne)[OEM] (Track 09 of 35).bin" BINARY
  TRACK 09 MODE1/2352
    INDEX 00 00:00:00
    INDEX 01 00:02:00
FILE "Osborne Front End - Windows 3.11 - MS-DOS 6.2 (1993)(Osborne)[OEM] (Track 10 of 35).bin" BINARY
  TRACK 10 MODE1/2352
    INDEX 00 00:00:00
    INDEX 01 00:02:00
FILE "Osborne Front End - Windows 3.11 - MS-DOS 6.2 (1993)(Osborne)[OEM] (Track 11 of 35).bin" BINARY
  TRACK 11 MODE1/2352
    INDEX 00 00:00:00
    INDEX 01 00:02:00
FILE "Osborne Front End - Windows 3.11 - MS-DOS 6.2 (1993)(Osborne)[OEM] (Track 12 of 35).bin" BINARY
  TRACK 12 MODE1/2352
    INDEX 00 00:00:00
    INDEX 01 00:02:00
FILE "Osborne Front End - Windows 3.11 - MS-DOS 6.2 (1993)(Osborne)[OEM] (Track 13 of 35).bin" BINARY
  TRACK 13 MODE1/2352
    INDEX 00 00:00:00
    INDEX 01 00:02:00
FILE "Osborne Front End - Windows 3.11 - MS-DOS 6.2 (1993)(Osborne)[OEM] (Track 14 of 35).bin" BINARY
  TRACK 14 MODE1/2352
    INDEX 00 00:00:00
    INDEX 01 00:02:00
FILE "Osborne Front End - Windows 3.11 - MS-DOS 6.2 (1993)(Osborne)[OEM] (Track 15 of 35).bin" BINARY
  TRACK 15 MODE1/2352
    INDEX 00 00:00:00
    INDEX 01 00:02:00
FILE "Osborne Front End - Windows 3.11 - MS-DOS 6.2 (1993)(Osborne)[OEM] (Track 16 of 35).bin" BINARY
  TRACK 16 MODE1/2352
    INDEX 00 00:00:00
    INDEX 01 00:02:00
FILE "Osborne Front End - Windows 3.11 - MS-DOS 6.2 (1993)(Osborne)[OEM] (Track 17 of 35).bin" BINARY
  TRACK 17 MODE1/2352
    INDEX 00 00:00:00
    INDEX 01 00:02:00
FILE "Osborne Front End - Windows 3.11 - MS-DOS 6.2 (1993)(Osborne)[OEM] (Track 18 of 35).bin" BINARY
  TRACK 18 MODE1/2352
    INDEX 00 00:00:00
    INDEX 01 00:02:00
FILE "Osborne Front End - Windows 3.11 - MS-DOS 6.2 (1993)(Osborne)[OEM] (Track 19 of 35).bin" BINARY
  TRACK 19 MODE1/2352
    INDEX 00 00:00:00
    INDEX 01 00:02:00
FILE "Osborne Front End - Windows 3.11 - MS-DOS 6.2 (1993)(Osborne)[OEM] (Track 20 of 35).bin" BINARY
  TRACK 20 MODE1/2352
    INDEX 00 00:00:00
    INDEX 01 00:02:00
FILE "Osborne Front End - Windows 3.11 - MS-DOS 6.2 (1993)(Osborne)[OEM] (Track 21 of 35).bin" BINARY
  TRACK 21 MODE1/2352
    INDEX 00 00:00:00
    INDEX 01 00:02:00
FILE "Osborne Front End - Windows 3.11 - MS-DOS 6.2 (1993)(Osborne)[OEM] (Track 22 of 35).bin" BINARY
  TRACK 22 MODE1/2352
    INDEX 00 00:00:00
    INDEX 01 00:02:00
FILE "Osborne Front End - Windows 3.11 - MS-DOS 6.2 (1993)(Osborne)[OEM] (Track 23 of 35).bin" BINARY
  TRACK 23 MODE1/2352
    INDEX 00 00:00:00
    INDEX 01 00:02:00
FILE "Osborne Front End - Windows 3.11 - MS-DOS 6.2 (1993)(Osborne)[OEM] (Track 24 of 35).bin" BINARY
  TRACK 24 MODE1/2352
    INDEX 00 00:00:00
    INDEX 01 00:02:00
FILE "Osborne Front End - Windows 3.11 - MS-DOS 6.2 (1993)(Osborne)[OEM] (Track 25 of 35).bin" BINARY
  TRACK 25 MODE1/2352
    INDEX 00 00:00:00
    INDEX 01 00:02:00
FILE "Osborne Front End - Windows 3.11 - MS-DOS 6.2 (1993)(Osborne)[OEM] (Track 26 of 35).bin" BINARY
  TRACK 26 MODE1/2352
    INDEX 00 00:00:00
    INDEX 01 00:02:00
FILE "Osborne Front End - Windows 3.11 - MS-DOS 6.2 (1993)(Osborne)[OEM] (Track 27 of 35).bin" BINARY
  TRACK 27 MODE1/2352
    INDEX 00 00:00:00
    INDEX 01 00:02:00
FILE "Osborne Front End - Windows 3.11 - MS-DOS 6.2 (1993)(Osborne)[OEM] (Track 28 of 35).bin" BINARY
  TRACK 28 MODE1/2352
    INDEX 00 00:00:00
    INDEX 01 00:02:00
FILE "Osborne Front End - Windows 3.11 - MS-DOS 6.2 (1993)(Osborne)[OEM] (Track 29 of 35).bin" BINARY
  TRACK 29 MODE1/2352
    INDEX 00 00:00:00
    INDEX 01 00:02:00
FILE "Osborne Front End - Windows 3.11 - MS-DOS 6.2 (1993)(Osborne)[OEM] (Track 30 of 35).bin" BINARY
  TRACK 30 MODE1/2352
    INDEX 00 00:00:00
    INDEX 01 00:02:00
FILE "Osborne Front End - Windows 3.11 - MS-DOS 6.2 (1993)(Osborne)[OEM] (Track 31 of 35).bin" BINARY
  TRACK 31 MODE1/2352
    INDEX 00 00:00:00
    INDEX 01 00:02:00
FILE "Osborne Front End - Windows 3.11 - MS-DOS 6.2 (1993)(Osborne)[OEM] (Track 32 of 35).bin" BINARY
  TRACK 32 MODE1/2352
    INDEX 00 00:00:00
    INDEX 01 00:02:00
FILE "Osborne Front End - Windows 3.11 - MS-DOS 6.2 (1993)(Osborne)[OEM] (Track 33 of 35).bin" BINARY
  TRACK 33 MODE1/2352
    INDEX 00 00:00:00
    INDEX 01 00:02:00
FILE "Osborne Front End - Windows 3.11 - MS-DOS 6.2 (1993)(Osborne)[OEM] (Track 34 of 35).bin" BINARY
  TRACK 34 MODE1/2352
    INDEX 00 00:00:00
    INDEX 01 00:02:00
FILE "Osborne Front End - Windows 3.11 - MS-DOS 6.2 (1993)(Osborne)[OEM] (Track 35 of 35).bin" BINARY
  TRACK 35 MODE1/2352
    INDEX 00 00:00:00
    INDEX 01 00:02:00
